<?xml version="1.0" encoding="UTF-8"?>
<!DOCTYPE svg PUBLIC "-//W3C//DTD SVG 1.1//EN" "http://www.w3.org/Graphics/SVG/1.1/DTD/svg11.dtd">
<!-- Creator: CorelDRAW -->
<svg xmlns="http://www.w3.org/2000/svg" xml:space="preserve" width="82px" height="82px" version="1.1" style="shape-rendering:geometricPrecision; text-rendering:geometricPrecision; image-rendering:optimizeQuality; fill-rule:evenodd; clip-rule:evenodd"
viewBox="0 0 0.9 0.9"
 xmlns:xlink="http://www.w3.org/1999/xlink"
 xmlns:xodm="http://www.corel.com/coreldraw/odm/2003">
 <defs>
  <style type="text/css">
   <![CDATA[
    .fil0 {fill:#FEFEFE}
   ]]>
  </style>
 </defs>
 <g id="Слой_x0020_1">
  <metadata id="CorelCorpID_0Corel-Layer"/>
  <path class="fil0" d="M0.75 0l-0.6 0c-0.08,0 -0.15,0.07 -0.15,0.15l0 0.6c0,0.08 0.07,0.15 0.15,0.15l0.6 0c0.08,0 0.15,-0.07 0.15,-0.15l0 -0.6c0,-0.08 -0.07,-0.15 -0.15,-0.15zm-0.4 0.11c-0.07,0.01 -0.12,0 -0.17,0.05 -0.03,0.01 -0.05,0.04 -0.06,0.07 -0.02,0.05 -0.02,0.11 -0.02,0.16 0,0.06 0,0.11 0,0.17 0.01,0.07 0.01,0.12 0.05,0.17 0.05,0.07 0.14,0.07 0.23,0.08 0.06,0 0.12,0 0.17,-0.01 0.06,0 0.1,0 0.15,-0.02 0.03,-0.02 0.06,-0.05 0.08,-0.1 0.02,-0.04 0.02,-0.1 0.02,-0.15 0,-0.06 0,-0.12 0,-0.17 -0.01,-0.06 -0.01,-0.1 -0.03,-0.15 -0.02,-0.04 -0.05,-0.07 -0.09,-0.08 -0.05,-0.02 -0.11,-0.02 -0.16,-0.02 -0.06,0 -0.12,0 -0.17,0zm0.01 0.06c-0.05,0 -0.09,0 -0.14,0.04 -0.02,0.01 -0.03,0.03 -0.04,0.06 -0.02,0.04 -0.02,0.09 -0.02,0.13 0,0.05 0,0.1 0,0.14 0,0.06 0.01,0.1 0.04,0.15 0.04,0.06 0.12,0.06 0.19,0.06 0.05,0 0.1,0 0.15,0 0.04,-0.01 0.08,-0.01 0.12,-0.03 0.03,-0.01 0.05,-0.04 0.06,-0.07 0.02,-0.04 0.02,-0.09 0.02,-0.13 0,-0.05 0,-0.1 0,-0.15 0,-0.05 0,-0.08 -0.02,-0.12 -0.02,-0.03 -0.05,-0.05 -0.08,-0.07 -0.04,-0.01 -0.09,-0.01 -0.13,-0.01 -0.05,0 -0.1,0 -0.15,0zm0.25 0.08c-0.02,0 -0.04,0.02 -0.03,0.05 0,0.02 0.02,0.03 0.05,0.03 0.05,-0.01 0.03,-0.09 -0.02,-0.08zm-0.17 0.11c-0.06,0 -0.1,0.05 -0.09,0.11 0,0.05 0.05,0.1 0.11,0.09 0.06,-0.01 0.1,-0.05 0.09,-0.12 0,-0.05 -0.05,-0.09 -0.11,-0.08zm-0.01 -0.06c-0.09,0.01 -0.15,0.09 -0.14,0.18 0.02,0.14 0.19,0.19 0.28,0.08 0.03,-0.03 0.05,-0.08 0.04,-0.13 -0.01,-0.07 -0.09,-0.14 -0.18,-0.13z"/>
 </g>
</svg>
