<?xml version="1.0" encoding="UTF-8"?>
<!DOCTYPE svg PUBLIC "-//W3C//DTD SVG 1.1//EN" "http://www.w3.org/Graphics/SVG/1.1/DTD/svg11.dtd">
<!-- Creator: CorelDRAW -->
<svg xmlns="http://www.w3.org/2000/svg" xml:space="preserve" width="1307px" height="469px" version="1.1" style="shape-rendering:geometricPrecision; text-rendering:geometricPrecision; image-rendering:optimizeQuality; fill-rule:evenodd; clip-rule:evenodd"
viewBox="0 0 130.51 46.86"
 xmlns:xlink="http://www.w3.org/1999/xlink"
 xmlns:xodm="http://www.corel.com/coreldraw/odm/2003">
 <defs>
  <style type="text/css">
   <![CDATA[
    .str0 {stroke:#2B2A29;stroke-width:0.09;stroke-miterlimit:22.9256}
    .str1 {stroke:#2B2A29;stroke-width:0.1;stroke-miterlimit:22.9256}
    .str2 {stroke:#2B2A29;stroke-width:0.1;stroke-miterlimit:22.9256}
    .fil1 {fill:#2B2A29}
    .fil0 {fill:#2B2A29;fill-rule:nonzero}
   ]]>
  </style>
 </defs>
 <g id="Слой_x0020_1">
  <metadata id="CorelCorpID_0Corel-Layer"/>
  <g id="_1884328431456">
   <path class="fil0" d="M59.06 37.08l68.96 0 0 8.25 -69.08 0 0 -8.25 0.12 0zm68.73 0.23l-68.62 0 0 7.78 68.62 0 0 -7.78z"/>
   <polygon class="fil0 str0" points="12.64,1.3 5.31,21.46 4.63,21.46 11.96,1.3 0.04,1.3 0.04,0.67 12.64,0.67 "/>
   <path class="fil0 str0" d="M33.06 18.86c-2.15,2.15 -4.74,3.23 -7.78,3.23 -3.06,0 -5.66,-1.08 -7.81,-3.23 -2.15,-2.15 -3.23,-4.75 -3.23,-7.81 0,-3.04 1.08,-5.63 3.23,-7.78 2.15,-2.15 4.75,-3.23 7.81,-3.23 3.04,0 5.63,1.08 7.78,3.23l-0.45 0.45c-2.04,-2.03 -4.48,-3.05 -7.33,-3.05 -2.88,0 -5.33,1.02 -7.36,3.05 -2.03,2.04 -3.05,4.48 -3.05,7.33 0,2.88 1.02,5.33 3.05,7.36 2.03,2.03 4.48,3.05 7.36,3.05 2.85,0 5.29,-1.02 7.33,-3.05l0.45 0.45z"/>
   <path class="fil0 str0" d="M71.59 12.41l-5.17 -11.08 -5.16 11.08 10.33 0zm-4.77 -11.74l5.77 12.36 -0.7 0 0 0 -10.94 0 -3.93 8.43 -0.7 0 9.7 -20.79 0.8 0z"/>
   <path class="fil0 str0" d="M38.17 10.75l8.18 0c1.3,0 2.41,-0.46 3.33,-1.38 0.92,-0.93 1.38,-2.04 1.38,-3.35 0,-1.3 -0.46,-2.41 -1.38,-3.33 -0.92,-0.92 -2.03,-1.39 -3.33,-1.39l-8.81 0.01 0 -0.64 8.81 0c1.48,0 2.74,0.53 3.78,1.57 1.04,1.04 1.56,2.3 1.56,3.78 0,1.49 -0.52,2.76 -1.56,3.8 -0.5,0.5 -1.05,0.88 -1.64,1.13 0.84,0.24 1.6,0.69 2.27,1.36 1.04,1.05 1.56,2.3 1.56,3.78 0,1.5 -0.52,2.77 -1.56,3.81 -1.04,1.04 -2.3,1.56 -3.78,1.56l-9.44 0 0 -10.71 0.63 0zm0 0.63l0 9.45 8.81 0c1.3,0 2.4,-0.46 3.33,-1.39 0.92,-0.92 1.38,-2.04 1.38,-3.35 0,-1.29 -0.46,-2.4 -1.38,-3.32 -0.93,-0.93 -2.03,-1.39 -3.33,-1.39l-8.81 0z"/>
   <polygon class="fil0 str0" points="93.23,12.4 93.94,12.4 98.17,21.46 97.46,21.46 97.46,21.46 78.67,21.46 78.67,21.46 77.96,21.46 87.66,0.67 88.37,0.67 87.97,1.53 78.97,20.83 97.16,20.83 "/>
   <polygon class="fil0 str0" points="102.16,0.67 114.13,0.67 114.13,1.3 102.79,1.3 102.79,10.75 102.79,11.38 102.79,20.83 114.13,20.83 114.13,21.46 102.16,21.46 "/>
   <path class="fil0 str0" d="M118.75 11.38l0 9.45 6.37 0c1.3,0 2.41,-0.46 3.33,-1.39 0.92,-0.92 1.38,-2.04 1.38,-3.35 0,-1.29 -0.46,-2.4 -1.38,-3.32 -0.92,-0.93 -2.03,-1.39 -3.33,-1.39l-6.37 0zm0 -0.63l6.37 0c1.48,0 2.74,0.52 3.78,1.56 1.04,1.05 1.56,2.3 1.56,3.78 0,1.5 -0.52,2.77 -1.56,3.81 -1.04,1.04 -2.3,1.56 -3.78,1.56l-7 0 0 -20.79 0.63 0 0 0.63 0 0 0 9.45z"/>
   <path class="fil1 str0" d="M48.75 40.03c0.39,-0.15 0.49,1.03 0.47,1.27 -0.04,0.4 -2.38,2.23 -2.74,2.41 -1.83,0.9 1.29,-3.35 2.27,-3.68zm-22.39 0.08c-0.05,-0.91 -2.44,0.35 -2.71,0.5 -1.55,0.9 -3.12,2.21 -3.36,2.25 -0.25,0.05 -0.25,-0.17 0.25,-0.91 0.38,-0.57 0.93,-1.2 1.64,-1.78 -0.14,-0.14 -0.8,-0.06 -1.91,0.38 -2.99,1.17 -4.16,1.94 -6.62,3.83 -0.24,0.17 -0.86,0.65 -1.12,0.46 -0.21,-0.37 0.39,-1.9 1.11,-3.11 0.7,-1.19 1.53,-2.07 1.82,-2.38 0.89,-0.92 2.87,-0.65 4.17,-0.66 0.62,-0.01 1.35,0.03 0.91,-0.3 -0.24,-0.18 -3.94,-0.05 -4.29,-0.04l0.17 -0.18 1.69 -1.47 -0.04 -0.06c-0.35,-0.42 -2.92,1.75 -2.99,1.76l-1.95 0.07c-0.12,0 -0.82,-0.01 -1.23,0.04 -0.61,0.07 -0.86,0.21 0.06,0.24 0.86,0.04 1.92,0.01 2.76,0.04 -0.37,0.37 -0.51,0.62 -1.03,0.77 -2.21,0.6 -6.72,2.31 -6.73,2.3 0.02,-0.47 0.01,-1.06 0.13,-1.62 0.17,-0.81 0.46,-1.6 0.88,-2.06 0.27,-0.3 0.56,-0.22 0.69,0.02 0.09,0.18 0.07,0.47 0.08,0.64 0.02,0.1 0.13,0.07 0.17,-0.13 0,-0.12 0.03,-0.63 -0.05,-0.68 -0.26,-0.62 -1.01,-0.5 -1.64,0.07 -1.32,1.19 -1.03,3.62 -1.47,4.39 -0.64,0.77 -2.52,1.81 -2.98,3.09 -0.15,0.43 -0.07,0.81 0.32,1.11 0.21,0.15 0.71,0.14 0.95,0.09 1.31,-0.29 2.37,-2.02 2.79,-3.99 0.14,-0.72 6.38,-2.97 6.7,-2.83 -1.37,2.02 -1.57,3.61 -1.54,4.63 0.11,0.66 0.51,0.75 1.01,0.56 0.68,-0.25 1.97,-1.34 3.13,-2.14 1.27,-0.88 3.14,-1.77 4.4,-2.21 -0.53,0.64 -1.38,2.03 -0.98,2.62 0.86,0.21 2.97,-2.13 4.31,-2.36 -0.38,0.45 -1.09,1.89 -1.25,2.92 -0.14,0.87 0.36,1.31 1.01,0.92 0.52,-0.3 2.72,-2.24 4.53,-3.32 0.46,-0.28 1.69,-0.88 2.27,-0.79 -0.43,0.48 -1.48,2.27 -1.04,2.73 0.17,0.18 0.46,0.09 0.8,-0.12 0.97,-0.62 2.27,-1.89 3.28,-2.63 0.27,-0.21 1.55,-1.55 1.76,-1.41 -0.44,0.53 -1.98,2.71 -2.41,4.32 -0.27,1.03 -0.03,2.15 1.05,1.38 0.36,-0.25 0.95,-0.75 1.64,-1.34 1.91,-1.64 4.58,-3.97 5.26,-3.62 -0.99,1.25 -1.26,2.26 -0.83,2.94 0.27,0.42 1.13,-0.05 1.93,-0.59 0.52,-0.36 1.78,-1.14 3.04,-1.82 1.47,-0.8 2.54,-1.15 3.36,-1.18 -1.36,0.78 -2.66,2.3 -2.7,3.94 -0.06,2.19 3.59,-1.56 3.8,-1.61 0.16,1 2.26,1.59 2.93,0.53 -0.08,-0.24 -0.5,0.16 -0.71,0.2 -0.78,0.15 -1.94,-0.09 -1.87,-1.08 0.6,-0.78 2.86,-3.56 1.57,-4.54 -0.99,-0.75 -1.95,1.24 -2.21,1.93 -0.15,0.1 -0.93,0.25 -1.15,0.27 -0.72,0.08 -2.38,0.84 -3.13,1.23 -1.06,0.57 -1.82,1.08 -3.01,1.88 -0.7,0.48 -1.34,0.86 -1.51,0.75 -0.29,-0.58 0.29,-1.47 0.92,-2.21 0.34,-0.4 1.39,-1.44 2.31,-1.87 -0.46,-0.32 -1.3,0.1 -1.69,0.35 -0.22,0.14 -0.87,0.4 -1.21,0.53 -0.35,0.13 -0.97,0.41 -1.36,0.61 -0.42,0.22 -1.13,0.76 -1.9,1.4 -1.63,1.32 -3.55,3.02 -3.86,2.88 -0.5,-0.32 0.59,-2.5 1.9,-4.33 0.97,-1.35 2.36,-2.83 2.77,-3.22 0.51,-0.48 1.34,-1.21 2.26,-1.89 0.18,-0.13 0.52,-0.27 0.64,-0.41 0.1,-0.11 0.11,-0.29 -0.58,-0.08 -0.54,0.17 -1.18,0.49 -1.87,1.12 -0.43,0.4 -4.7,4.16 -4.95,4.25 -0.25,-0.43 -1.72,-0.22 -2.91,0.08 -1.15,0.29 -1.97,0.73 -2.71,1.15 -1,0.57 -1.82,1.18 -3.04,2.13 -0.9,0.69 -1.37,1.46 -1.86,1.13 -0.2,-0.39 0.89,-2.6 2.11,-3.78 0.37,-0.35 0.75,-0.6 1.12,-0.68zm19.35 -4.65c-0.46,0.08 -0.84,0.06 -1.04,0.6 -0.08,0.21 -0.32,1.37 0.19,0.74 0.31,-0.4 1.34,-0.89 1.34,-1.11 -0.01,-0.16 -0.42,-0.25 -0.49,-0.23zm-39.99 7.75c-0.11,0.57 -0.78,3.4 -2.36,3.17 -0.18,-0.02 -0.3,-0.08 -0.37,-0.16 -0.58,-0.7 2.48,-3.17 2.73,-3.01zm24.55 -0.45c-0.06,-0.36 0.86,-1.54 1.04,-1.73 0.4,-0.41 1.2,-1.01 1.8,-0.71l0.09 0.11 -2.93 2.33zm19.98 -5.12c0.23,-0.24 1.04,-1.08 1.15,0.02 0.03,1.27 -1.15,2.65 -1.78,3.32 -0.12,-0.62 -0.19,-2.39 0.63,-3.34z"/>
   <polygon class="fil0 str0" points="123.92,0.67 129.19,0.67 129.19,1.3 124.19,1.3 123.92,1.29 "/>
   <polygon class="fil0 str0" points="107.41,10.76 112.68,10.76 112.68,11.39 107.68,11.39 107.41,11.38 "/>
   <path class="fil0 str1" d="M65.27 40.68c0,0.12 -0.03,0.22 -0.07,0.33 -0.04,0.1 -0.09,0.18 -0.17,0.26 -0.09,0.09 -0.2,0.16 -0.32,0.2 -0.13,0.05 -0.28,0.07 -0.47,0.07l-0.36 0 0 0.99 -0.35 0 0 -2.66 0.72 0c0.16,0 0.29,0.02 0.4,0.04 0.11,0.03 0.21,0.07 0.3,0.13 0.1,0.07 0.18,0.15 0.23,0.25 0.06,0.1 0.09,0.23 0.09,0.39zm-0.37 0.01c0,-0.1 -0.02,-0.17 -0.05,-0.24 -0.03,-0.07 -0.08,-0.12 -0.15,-0.17 -0.05,-0.03 -0.12,-0.06 -0.19,-0.08 -0.08,-0.01 -0.17,-0.02 -0.28,-0.02l-0.35 0 0 1.05 0.3 0c0.14,0 0.26,-0.01 0.35,-0.03 0.09,-0.03 0.16,-0.07 0.21,-0.12 0.06,-0.06 0.1,-0.12 0.12,-0.18 0.02,-0.07 0.04,-0.14 0.04,-0.21zm3.91 -0.51c0.11,0.12 0.19,0.26 0.25,0.44 0.05,0.17 0.08,0.37 0.08,0.58 0,0.22 -0.03,0.42 -0.09,0.59 -0.05,0.18 -0.14,0.32 -0.24,0.44 -0.11,0.12 -0.24,0.21 -0.39,0.27 -0.15,0.06 -0.32,0.09 -0.51,0.09 -0.19,0 -0.36,-0.03 -0.51,-0.09 -0.16,-0.07 -0.29,-0.16 -0.39,-0.27 -0.11,-0.12 -0.19,-0.27 -0.25,-0.44 -0.06,-0.17 -0.09,-0.37 -0.09,-0.59 0,-0.21 0.03,-0.41 0.09,-0.58 0.06,-0.17 0.14,-0.32 0.25,-0.44 0.1,-0.12 0.23,-0.21 0.39,-0.27 0.15,-0.06 0.32,-0.09 0.51,-0.09 0.19,0 0.36,0.03 0.51,0.09 0.15,0.06 0.28,0.15 0.39,0.27zm-0.04 1.02c0,-0.34 -0.07,-0.61 -0.23,-0.79 -0.15,-0.19 -0.36,-0.28 -0.63,-0.28 -0.27,0 -0.48,0.09 -0.64,0.28 -0.15,0.18 -0.23,0.45 -0.23,0.79 0,0.35 0.08,0.62 0.24,0.8 0.16,0.19 0.37,0.28 0.63,0.28 0.26,0 0.47,-0.09 0.63,-0.28 0.16,-0.18 0.23,-0.45 0.23,-0.8zm3.71 1.33l-1.68 0 0 -2.66 0.35 0 0 2.35 1.33 0 0 0.31zm3.05 -2.66l-0.94 1.5 0 1.16 -0.35 0 0 -1.13 -0.94 -1.53 0.39 0 0.73 1.19 0.73 -1.19 0.38 0zm3.67 2.47c-0.14,0.07 -0.3,0.12 -0.47,0.17 -0.17,0.05 -0.34,0.08 -0.5,0.08 -0.21,0 -0.4,-0.03 -0.57,-0.09 -0.17,-0.06 -0.32,-0.14 -0.44,-0.26 -0.12,-0.11 -0.22,-0.26 -0.29,-0.43 -0.06,-0.17 -0.1,-0.38 -0.1,-0.61 0,-0.42 0.13,-0.76 0.38,-1.01 0.24,-0.24 0.59,-0.36 1.02,-0.36 0.15,0 0.31,0.01 0.46,0.05 0.16,0.04 0.33,0.1 0.51,0.18l0 0.42 -0.03 0c-0.03,-0.02 -0.09,-0.06 -0.16,-0.11 -0.07,-0.04 -0.14,-0.08 -0.21,-0.11 -0.08,-0.04 -0.17,-0.07 -0.28,-0.09 -0.1,-0.02 -0.22,-0.04 -0.35,-0.04 -0.3,0 -0.53,0.1 -0.71,0.29 -0.17,0.19 -0.26,0.45 -0.26,0.77 0,0.35 0.09,0.61 0.27,0.8 0.18,0.2 0.43,0.29 0.74,0.29 0.12,0 0.23,-0.01 0.34,-0.03 0.12,-0.03 0.22,-0.05 0.3,-0.09l0 -0.65 -0.71 0 0 -0.31 1.06 0 0 1.14zm3.92 0.19l-0.46 0 -0.89 -1.05 -0.5 0 0 1.05 -0.35 0 0 -2.66 0.74 0c0.16,0 0.3,0.01 0.41,0.03 0.1,0.03 0.2,0.06 0.28,0.12 0.1,0.06 0.18,0.13 0.23,0.23 0.06,0.09 0.08,0.21 0.08,0.35 0,0.19 -0.05,0.35 -0.14,0.48 -0.1,0.13 -0.23,0.23 -0.4,0.29l1 1.16zm-0.83 -1.91c0,-0.07 -0.01,-0.14 -0.04,-0.2 -0.02,-0.06 -0.07,-0.11 -0.13,-0.15 -0.05,-0.03 -0.11,-0.06 -0.18,-0.07 -0.07,-0.01 -0.16,-0.02 -0.25,-0.02l-0.42 0 0 1 0.36 0c0.11,0 0.21,-0.01 0.29,-0.03 0.09,-0.02 0.16,-0.06 0.22,-0.11 0.05,-0.05 0.09,-0.11 0.11,-0.17 0.03,-0.06 0.04,-0.15 0.04,-0.25zm4.36 1.91l-0.38 0 -0.26 -0.74 -1.15 0 -0.26 0.74 -0.36 0 0.97 -2.66 0.47 0 0.97 2.66zm-0.75 -1.04l-0.46 -1.31 -0.47 1.31 0.93 0zm3.99 -0.81c0,0.12 -0.03,0.22 -0.07,0.33 -0.04,0.1 -0.09,0.18 -0.17,0.26 -0.09,0.09 -0.2,0.16 -0.32,0.2 -0.13,0.05 -0.28,0.07 -0.47,0.07l-0.36 0 0 0.99 -0.35 0 0 -2.66 0.72 0c0.16,0 0.29,0.02 0.4,0.04 0.11,0.03 0.21,0.07 0.3,0.13 0.1,0.07 0.18,0.15 0.23,0.25 0.06,0.1 0.09,0.23 0.09,0.39zm-0.37 0.01c0,-0.1 -0.02,-0.17 -0.05,-0.24 -0.03,-0.07 -0.08,-0.12 -0.15,-0.17 -0.05,-0.03 -0.12,-0.06 -0.19,-0.08 -0.08,-0.01 -0.17,-0.02 -0.28,-0.02l-0.35 0 0 1.05 0.3 0c0.14,0 0.26,-0.01 0.35,-0.03 0.09,-0.03 0.16,-0.07 0.21,-0.12 0.06,-0.06 0.1,-0.12 0.12,-0.18 0.02,-0.07 0.04,-0.14 0.04,-0.21zm3.96 1.84l-0.36 0 0 -1.3 -1.32 0 0 1.3 -0.35 0 0 -2.66 0.35 0 0 1.05 1.32 0 0 -1.05 0.36 0 0 2.66zm3.69 -2.66l-0.93 1.5 0 1.16 -0.36 0 0 -1.13 -0.94 -1.53 0.39 0 0.73 1.19 0.74 -1.19 0.37 0z"/>
   <path class="fil0 str2" d="M101.29 40.41c0,-0.12 -0.03,-0.21 -0.1,-0.27 -0.07,-0.07 -0.15,-0.1 -0.26,-0.1 -0.11,0 -0.2,0.04 -0.26,0.11 -0.07,0.07 -0.11,0.16 -0.11,0.27 0,0.09 0.03,0.17 0.07,0.24 0.05,0.07 0.15,0.15 0.31,0.24 0.11,-0.04 0.2,-0.1 0.26,-0.18 0.06,-0.08 0.09,-0.19 0.09,-0.31zm0.35 1.56l-0.86 -0.83c-0.03,0.02 -0.07,0.04 -0.1,0.07 -0.04,0.03 -0.08,0.07 -0.11,0.12 -0.04,0.04 -0.06,0.1 -0.09,0.16 -0.02,0.07 -0.03,0.14 -0.03,0.23 0,0.17 0.05,0.31 0.16,0.42 0.1,0.1 0.24,0.16 0.43,0.16 0.11,0 0.22,-0.03 0.33,-0.09 0.1,-0.05 0.2,-0.13 0.27,-0.24zm0.54 -1.06l0 0.17c0,0.11 -0.02,0.24 -0.05,0.39 -0.03,0.14 -0.08,0.28 -0.15,0.41l0.68 0.65 -0.44 0 -0.41 -0.4c-0.14,0.17 -0.28,0.29 -0.42,0.36 -0.15,0.06 -0.29,0.1 -0.44,0.1 -0.25,0 -0.46,-0.07 -0.62,-0.22 -0.16,-0.14 -0.25,-0.33 -0.25,-0.57 0,-0.11 0.02,-0.2 0.05,-0.28 0.03,-0.08 0.07,-0.15 0.11,-0.21 0.04,-0.05 0.09,-0.11 0.15,-0.16 0.07,-0.05 0.13,-0.09 0.19,-0.13 -0.13,-0.08 -0.22,-0.17 -0.28,-0.26 -0.06,-0.08 -0.09,-0.19 -0.09,-0.32 0,-0.08 0.02,-0.16 0.05,-0.23 0.03,-0.07 0.08,-0.14 0.14,-0.2 0.06,-0.06 0.14,-0.1 0.23,-0.14 0.1,-0.03 0.21,-0.05 0.32,-0.05 0.21,0 0.37,0.05 0.5,0.15 0.13,0.11 0.19,0.24 0.19,0.4 0,0.05 -0.01,0.11 -0.02,0.18 -0.01,0.06 -0.04,0.12 -0.07,0.18 -0.04,0.05 -0.1,0.11 -0.17,0.16 -0.07,0.06 -0.16,0.1 -0.27,0.14l0.66 0.65c0.02,-0.05 0.03,-0.1 0.04,-0.16 0.01,-0.06 0.02,-0.12 0.02,-0.18 0,-0.07 0,-0.14 0,-0.22 0,-0.08 0,-0.15 0,-0.21l0.35 0zm5.75 0.3c0,0.24 -0.05,0.46 -0.16,0.65 -0.11,0.2 -0.25,0.35 -0.42,0.46 -0.12,0.08 -0.26,0.13 -0.41,0.16 -0.15,0.04 -0.34,0.05 -0.59,0.05l-0.67 0 0 -2.66 0.67 0c0.26,0 0.46,0.02 0.61,0.06 0.16,0.04 0.29,0.09 0.39,0.15 0.18,0.12 0.32,0.27 0.43,0.46 0.1,0.18 0.15,0.41 0.15,0.67zm-0.37 -0.01c0,-0.21 -0.04,-0.38 -0.11,-0.52 -0.07,-0.15 -0.18,-0.26 -0.33,-0.34 -0.1,-0.06 -0.21,-0.1 -0.33,-0.12 -0.12,-0.03 -0.26,-0.04 -0.42,-0.04l-0.33 0 0 2.05 0.33 0c0.17,0 0.32,-0.02 0.44,-0.04 0.13,-0.03 0.25,-0.07 0.35,-0.14 0.13,-0.08 0.23,-0.2 0.3,-0.33 0.07,-0.14 0.1,-0.31 0.1,-0.52zm3.78 1.33l-1.75 0 0 -2.66 1.75 0 0 0.32 -1.39 0 0 0.73 1.39 0 0 0.31 -1.39 0 0 0.99 1.39 0 0 0.31zm3.71 -0.19c-0.06,0.03 -0.12,0.06 -0.18,0.08 -0.05,0.03 -0.12,0.05 -0.2,0.08 -0.08,0.02 -0.16,0.04 -0.24,0.06 -0.09,0.01 -0.18,0.02 -0.28,0.02 -0.19,0 -0.37,-0.03 -0.53,-0.08 -0.16,-0.05 -0.29,-0.14 -0.41,-0.26 -0.11,-0.11 -0.2,-0.25 -0.27,-0.43 -0.06,-0.17 -0.09,-0.37 -0.09,-0.6 0,-0.22 0.03,-0.42 0.09,-0.59 0.06,-0.17 0.15,-0.32 0.27,-0.44 0.11,-0.11 0.25,-0.2 0.41,-0.26 0.16,-0.06 0.33,-0.09 0.53,-0.09 0.14,0 0.29,0.01 0.43,0.05 0.14,0.03 0.3,0.09 0.47,0.18l0 0.42 -0.02 0c-0.15,-0.12 -0.3,-0.21 -0.44,-0.26 -0.14,-0.06 -0.3,-0.09 -0.46,-0.09 -0.14,0 -0.26,0.02 -0.37,0.07 -0.1,0.04 -0.2,0.11 -0.28,0.2 -0.09,0.09 -0.15,0.2 -0.2,0.34 -0.04,0.13 -0.06,0.29 -0.06,0.47 0,0.18 0.02,0.34 0.07,0.48 0.05,0.13 0.12,0.24 0.2,0.33 0.08,0.08 0.18,0.15 0.29,0.19 0.11,0.04 0.23,0.06 0.35,0.06 0.17,0 0.33,-0.03 0.48,-0.08 0.15,-0.06 0.29,-0.15 0.42,-0.26l0.02 0 0 0.41zm3.58 -2.16c0.11,0.12 0.19,0.26 0.25,0.44 0.05,0.17 0.08,0.37 0.08,0.58 0,0.22 -0.03,0.42 -0.09,0.59 -0.06,0.18 -0.14,0.32 -0.24,0.44 -0.11,0.12 -0.24,0.21 -0.39,0.27 -0.15,0.06 -0.32,0.09 -0.51,0.09 -0.19,0 -0.36,-0.03 -0.51,-0.09 -0.16,-0.07 -0.29,-0.16 -0.39,-0.27 -0.11,-0.12 -0.19,-0.27 -0.25,-0.44 -0.06,-0.17 -0.09,-0.37 -0.09,-0.59 0,-0.21 0.03,-0.41 0.09,-0.58 0.06,-0.17 0.14,-0.32 0.25,-0.44 0.1,-0.12 0.23,-0.21 0.39,-0.27 0.15,-0.06 0.32,-0.09 0.51,-0.09 0.19,0 0.36,0.03 0.51,0.09 0.15,0.06 0.28,0.15 0.39,0.27zm-0.04 1.02c0,-0.34 -0.07,-0.61 -0.23,-0.79 -0.15,-0.19 -0.36,-0.28 -0.63,-0.28 -0.27,0 -0.48,0.09 -0.64,0.28 -0.15,0.18 -0.23,0.45 -0.23,0.79 0,0.35 0.08,0.62 0.24,0.8 0.15,0.19 0.37,0.28 0.63,0.28 0.26,0 0.47,-0.09 0.63,-0.28 0.16,-0.18 0.23,-0.45 0.23,-0.8zm4.23 1.33l-0.46 0 -0.89 -1.05 -0.5 0 0 1.05 -0.35 0 0 -2.66 0.75 0c0.16,0 0.29,0.01 0.4,0.03 0.11,0.03 0.2,0.06 0.29,0.12 0.09,0.06 0.17,0.13 0.22,0.23 0.06,0.09 0.08,0.21 0.08,0.35 0,0.19 -0.04,0.35 -0.14,0.48 -0.1,0.13 -0.23,0.23 -0.4,0.29l1 1.16zm-0.82 -1.91c0,-0.07 -0.02,-0.14 -0.05,-0.2 -0.02,-0.06 -0.07,-0.11 -0.13,-0.15 -0.05,-0.03 -0.11,-0.06 -0.18,-0.07 -0.07,-0.01 -0.15,-0.02 -0.25,-0.02l-0.42 0 0 1 0.36 0c0.11,0 0.21,-0.01 0.3,-0.03 0.08,-0.02 0.15,-0.06 0.21,-0.11 0.05,-0.05 0.09,-0.11 0.12,-0.17 0.02,-0.06 0.04,-0.15 0.04,-0.25z"/>
  </g>
 </g>
</svg>
