<?xml version="1.0" encoding="UTF-8"?>
<!DOCTYPE svg PUBLIC "-//W3C//DTD SVG 1.1//EN" "http://www.w3.org/Graphics/SVG/1.1/DTD/svg11.dtd">
<!-- Creator: CorelDRAW -->
<svg xmlns="http://www.w3.org/2000/svg" xml:space="preserve" width="92px" height="60px" version="1.1" style="shape-rendering:geometricPrecision; text-rendering:geometricPrecision; image-rendering:optimizeQuality; fill-rule:evenodd; clip-rule:evenodd"
viewBox="0 0 0.53 0.35"
 xmlns:xlink="http://www.w3.org/1999/xlink"
 xmlns:xodm="http://www.corel.com/coreldraw/odm/2003">
 <defs>
  <style type="text/css">
   <![CDATA[
    .fil0 {fill:#9089B0;fill-rule:nonzero}
   ]]>
  </style>
 </defs>
 <g id="Слой_x0020_1">
  <metadata id="CorelCorpID_0Corel-Layer"/>
  <path class="fil0" d="M0.52 0.3c-0.01,0.02 -0.03,0.03 -0.05,0.04 -0.02,0.01 -0.05,0.01 -0.07,0.01 -0.03,0 -0.05,0 -0.07,-0.01 -0.02,-0.01 -0.04,-0.02 -0.06,-0.04 -0.01,-0.02 -0.03,-0.04 -0.03,-0.06 -0.01,-0.02 -0.02,-0.04 -0.02,-0.06 0,-0.03 0.01,-0.05 0.02,-0.07 0,-0.02 0.02,-0.04 0.03,-0.06 0.02,-0.02 0.04,-0.03 0.06,-0.04 0.02,-0.01 0.04,-0.01 0.07,-0.01 0.02,0 0.05,0 0.07,0.01 0.02,0.01 0.04,0.02 0.05,0.04l0.01 0.01 -0.01 0.01 0 0.01 -0.01 0.01 -0.01 -0.01c-0.02,-0.02 -0.03,-0.03 -0.05,-0.03 -0.01,-0.01 -0.03,-0.02 -0.05,-0.02 -0.02,0 -0.04,0.01 -0.06,0.02l0 0c-0.01,0 -0.03,0.01 -0.04,0.03 -0.01,0.01 -0.02,0.02 -0.03,0.04 -0.01,0.02 -0.01,0.04 -0.01,0.06 0,0.01 0,0.03 0.01,0.05 0.01,0.02 0.02,0.03 0.03,0.04 0.01,0.02 0.03,0.03 0.04,0.04 0.02,0 0.04,0.01 0.06,0.01 0.02,0 0.04,-0.01 0.05,-0.01 0.02,-0.01 0.03,-0.02 0.05,-0.04l0.01 0 0.01 0 0 0.01 0.01 0.01 -0.01 0.01zm-0.31 -0.27l-0.12 0.32 -0.01 0 -0.01 0 -0.01 0 0.11 -0.31 -0.16 0 -0.01 0 0 -0.02 0 -0.01 0 -0.01 0.01 0 0.19 0 0.01 0 0 0.01 0 0.01 0 0.01 0 0z"/>
 </g>
</svg>
