<?xml version="1.0" encoding="UTF-8"?>
<!DOCTYPE svg PUBLIC "-//W3C//DTD SVG 1.1//EN" "http://www.w3.org/Graphics/SVG/1.1/DTD/svg11.dtd">
<!-- Creator: CorelDRAW -->
<svg xmlns="http://www.w3.org/2000/svg" xml:space="preserve" width="82px" height="82px" version="1.1" style="shape-rendering:geometricPrecision; text-rendering:geometricPrecision; image-rendering:optimizeQuality; fill-rule:evenodd; clip-rule:evenodd"
viewBox="0 0 0.93 0.93"
 xmlns:xlink="http://www.w3.org/1999/xlink"
 xmlns:xodm="http://www.corel.com/coreldraw/odm/2003">
 <defs>
  <style type="text/css">
   <![CDATA[
    .fil0 {fill:#FEFEFE}
   ]]>
  </style>
 </defs>
 <g id="Слой_x0020_1">
  <metadata id="CorelCorpID_0Corel-Layer"/>
  <path class="fil0" d="M0.78 0l-0.63 0c-0.08,0 -0.15,0.07 -0.15,0.15l0 0.63c0,0.08 0.07,0.15 0.15,0.15l0.63 0c0.08,0 0.15,-0.07 0.15,-0.15l0 -0.63c0,-0.08 -0.07,-0.15 -0.15,-0.15zm-0.56 0.42c0,0.01 0,0.02 0,0.02 0,0.02 0.01,0.03 0.02,0.04 0.02,0.02 0.04,0.04 0.07,0.04 0.01,-0.01 0.02,-0.03 0.01,-0.05 -0.01,-0.02 -0.02,-0.03 -0.03,-0.05 -0.02,-0.12 0.08,-0.24 0.21,-0.23 0.05,0 0.08,0.02 0.11,0.04 0.03,0.02 0.04,0.06 0.05,0.1 0,0.11 -0.05,0.25 -0.15,0.23 -0.12,-0.03 0.05,-0.22 -0.03,-0.27 -0.04,-0.03 -0.08,-0.01 -0.1,0.03 -0.01,0.03 -0.02,0.08 0,0.12 0,0 0,0.01 0,0.01 0,0 0,0.01 0,0.02 -0.02,0.07 -0.04,0.13 -0.05,0.21 -0.01,0.04 -0.01,0.1 0,0.14 0.01,-0.01 0.03,-0.03 0.04,-0.04 0.03,-0.05 0.05,-0.14 0.06,-0.2 0.02,0.01 0.05,0.05 0.11,0.05 0.12,0 0.19,-0.11 0.21,-0.22 0.02,-0.16 -0.06,-0.26 -0.22,-0.28 -0.01,-0.01 -0.02,-0.01 -0.02,-0.01l-0.04 0c0,0.01 -0.02,0 -0.03,0.01 -0.1,0.01 -0.19,0.08 -0.22,0.18 -0.01,0.03 -0.01,0.08 0,0.11z"/>
 </g>
</svg>
